<svg xmlns="http://www.w3.org/2000/svg" width="512" height="512" viewBox="0 0 512 512" role="img" aria-label="EB — עו״ד אליזבט ברזאני דדון">
  <rect width="512" height="512" fill="#141415"/>
  <path transform="translate(42.86,365.19) scale(0.26894,-0.26894)" d="M780 188Q796 188 804.0 176.0Q812 164 812 145Q812 115 797.5 94.0Q783 73 748 56Q689 28 595.0 11.5Q501 -5 410 -5Q284 -5 199.0 23.5Q114 52 72.5 102.0Q31 152 31 215Q31 301 86.5 361.5Q142 422 250 449Q191 466 159.5 509.0Q128 552 128 605Q128 677 173.5 732.5Q219 788 296.0 818.0Q373 848 465 848Q589 848 651.0 794.5Q713 741 713 656Q713 597 691.5 560.5Q670 524 630 524Q602 524 586.0 536.5Q570 549 570 574Q570 591 575 611Q580 644 580 656Q580 692 553.0 714.5Q526 737 463 737Q378 737 327.0 701.0Q276 665 276 604Q276 557 314.5 526.5Q353 496 440 493Q462 492 471.0 483.0Q480 474 480 453Q480 387 420 386Q337 384 282.5 363.0Q228 342 203.5 309.5Q179 277 179 240Q179 178 237.0 146.5Q295 115 421 115Q504 115 596.5 134.5Q689 154 755 182Q770 188 780 188Z" fill="#E5B34A"/>
<path transform="translate(227.36,365.19) scale(0.26894,-0.26894)" d="M633 405Q695 388 727.0 349.5Q759 311 759 261Q759 182 709.5 124.0Q660 66 565.0 34.5Q470 3 336 3Q286 3 256 6Q255 -22 232.0 -36.0Q209 -50 173 -50Q137 -50 123.5 -34.0Q110 -18 112 13Q121 153 147.0 306.5Q173 460 213 603Q220 628 241.0 638.0Q262 648 296 648Q357 648 357 614Q357 600 351 582Q325 504 299.0 370.5Q273 237 262 116Q310 112 340 112Q480 112 545.5 152.5Q611 193 611 256Q611 300 573.5 330.0Q536 360 448 363Q428 364 420.0 373.0Q412 382 412 402Q412 431 424.0 449.0Q436 467 468 468Q539 470 596.5 489.0Q654 508 687.0 542.5Q720 577 720 623Q720 681 663.0 714.5Q606 748 488 748Q381 748 281.0 720.5Q181 693 111 651Q79 632 57 632Q39 632 29.5 644.5Q20 657 20 676Q20 701 30.5 719.0Q41 737 81 760Q165 808 278.0 835.0Q391 862 509 862Q690 862 779.0 801.0Q868 740 868 640Q868 555 808.0 493.5Q748 432 633 405Z" fill="#E5B34A"/>
</svg>
